<?xml version="1.0" standalone="no"?>
<!DOCTYPE svg PUBLIC "-//W3C//DTD SVG 1.1//EN" "http://www.w3.org/Graphics/SVG/1.1/DTD/svg11.dtd" >
<svg xmlns="http://www.w3.org/2000/svg">
<metadata>
Created by FontForge 20120731 at Wed Nov 18 10:12:58 2015
 By Ads
</metadata>
<defs>
<font id="iconfont" horiz-adv-x="1024" >
  <font-face 
    font-family="iconfont"
    font-weight="500"
    font-stretch="normal"
    units-per-em="1024"
    panose-1="2 0 6 3 0 0 0 0 0 0"
    ascent="812"
    descent="-212"
    x-height="792"
    bbox="-0.984496 -224 1474.19 812"
    underline-thickness="50"
    underline-position="-100"
    unicode-range="U+0078-E626"
  />
<missing-glyph horiz-adv-x="374" 
d="M34 0v682h272v-682h-272zM68 34h204v614h-204v-614z" />
    <glyph glyph-name=".notdef" horiz-adv-x="374" 
d="M34 0v682h272v-682h-272zM68 34h204v614h-204v-614z" />
    <glyph glyph-name=".null" horiz-adv-x="0" 
 />
    <glyph glyph-name="nonmarkingreturn" horiz-adv-x="341" 
 />
    <glyph glyph-name="x" unicode="x" horiz-adv-x="1001" 
d="M281 543q-27 -1 -53 -1h-83q-18 0 -36.5 -6t-32.5 -18.5t-23 -32t-9 -45.5v-76h912v41q0 16 -0.5 30t-0.5 18q0 13 -5 29t-17 29.5t-31.5 22.5t-49.5 9h-133v-97h-438v97zM955 310v-52q0 -23 0.5 -52t0.5 -58t-10.5 -47.5t-26 -30t-33 -16t-31.5 -4.5q-14 -1 -29.5 -0.5
t-29.5 0.5h-32l-45 128h-439l-44 -128h-29h-34q-20 0 -45 1q-25 0 -41 9.5t-25.5 23t-13.5 29.5t-4 30v167h911zM163 247q-12 0 -21 -8.5t-9 -21.5t9 -21.5t21 -8.5q13 0 22 8.5t9 21.5t-9 21.5t-22 8.5zM316 123q-8 -26 -14 -48q-5 -19 -10.5 -37t-7.5 -25t-3 -15t1 -14.5
t9.5 -10.5t21.5 -4h37h67h81h80h64h36q23 0 34 12t2 38q-5 13 -9.5 30.5t-9.5 34.5q-5 19 -11 39h-368zM336 498v228q0 11 2.5 23t10 21.5t20.5 15.5t34 6h188q31 0 51.5 -14.5t20.5 -52.5v-227h-327z" />
    <glyph glyph-name="uniE600" unicode="&#xe600;" 
d="M639 620q30 0 54 -13t41.5 -32.5t26.5 -42t9 -40.5v-576q0 -30 -11.5 -53.5t-30.5 -40t-42.5 -25.5t-46.5 -9h-504q-19 0 -42 11t-43 29.5t-33 42.5t-13 49v568q0 22 10 45t26.5 42.5t38 32t44.5 12.5h516zM578 -18q27 0 46 18.5t19 45t-19 45.5t-46 19h-382
q-27 0 -46 -19t-19 -45.5t19 -45t46 -18.5h382zM578 237q27 0 46 18.5t19 45t-19 45.5t-46 19h-382q-27 0 -46 -19t-19 -45.5t19 -45t46 -18.5h382zM759 812q44 0 80.5 -26t64 -64.5t42.5 -82.5t15 -81v-542q0 -22 -12.5 -40t-31 -30.5t-40 -20t-39.5 -7.5h-4v609
q-9 71 -44.5 108.5t-94.5 48.5h-498q1 2 1 8q0 20 12 41.5t32 39t44.5 28.5t48.5 11h424z" />
    <glyph glyph-name="uniE601" unicode="&#xe601;" 
d="M512 -128q-86 0 -165 33q-76 32 -135 91q-29 29 -51.5 63t-38.5 72q-34 78 -34 165q0 17 1.5 34t4 33.5t6.5 33t9.5 32.5t12.5 32q32 76 90.5 134.5t134.5 90.5q79 33 165 33t165 -33q13 -5 25 -11.5t23.5 -13t23 -14t22 -16t21 -17.5t20.5 -19q29 -29 51.5 -63t38.5 -71
q11 -27 18.5 -54t11.5 -55t4 -56q0 -87 -34 -165q-32 -76 -90.5 -135t-134.5 -91q-20 -8 -40 -14.5t-40.5 -10.5t-42 -6t-42.5 -2zM512 637q-69 0 -132.5 -27t-109 -73t-72.5 -109t-27 -132q0 -93 45.5 -171.5t124 -124.5t171.5 -46t171.5 46t124 124.5t45.5 171.5
q0 46 -12 90t-34 81.5t-53.5 69t-69 53.5t-82 34.5t-90.5 12.5zM568 472l-54 -117h-2q-3 8 -5.5 16t-5 15.5t-13.5 29.5t-31 57l-73 1l54 -115h-73v-74h110v-37h-110v-73h110v-74h74v74h110v73h-110v37h110v74h-73l55 112z" />
    <glyph glyph-name="uniE602" unicode="&#xe602;" 
d="M467 565q0 -11 -10 -21t-24 -10q-10 0 -18 5t-12 12.5t-4 14.5v34q-91 -39 -146 -121.5t-61 -191.5q-5 -73 31.5 -140.5t110 -115t168.5 -56.5q13 -1 23.5 -9.5t10.5 -25.5q0 -15 -8 -23.5t-14 -10t-11 -1.5q-79 -1 -150.5 29t-123 83t-80.5 129t-26 162q2 62 24 121
t53 100.5t65.5 69.5t64.5 36h-34q-30 0 -30 32q0 18 11 27.5t24 9.5h166v-139zM571 44q0 6 1.5 11.5t4.5 11t10.5 9t18.5 3.5q17 0 25.5 -11t8.5 -24v-34q92 38 147 120.5t62 191.5q4 73 -32.5 141t-110.5 115.5t-170 56.5q-8 0 -14.5 2.5t-12.5 10t-7 19.5q-1 10 1.5 17.5
t7 11.5t10.5 6.5t13 2.5q80 1 153 -29.5t126 -83t82 -129t23 -162.5q-4 -69 -33.5 -133t-67.5 -104.5t-76.5 -64.5t-65.5 -24h66q37 0 37 -33q0 -37 -39 -37h-168v139zM582 464l-51 -110h-1q-2 4 -3.5 8.5t-2.5 8t-2.5 7.5t-4.5 11t-7.5 16.5t-12.5 24.5t-19 35h-69l51 -108
h-69v-70h104v-34h-104v-70h104v-69h69v69h105v70h-105v34h105v70h-70l53 106z" />
    <glyph glyph-name="uniE603" unicode="&#xe603;" 
d="M512 684q-159 0 -271.5 -112.5t-112.5 -271.5t112.5 -271.5t271.5 -112.5t271.5 112.5t112.5 271.5t-112.5 271.5t-271.5 112.5zM512 -20q-132 0 -226 94t-94 226t94 226t226 94t226 -94t94 -226t-94 -226t-226 -94zM661 206l-133 77v209q0 13 -9.5 22.5t-22.5 9.5
t-22.5 -9.5t-9.5 -22.5v-224q0 -13 24 -27q2 -3 15 -11l132 -80q8 -4 15.5 -4t14 4.5t10.5 11.5q3 4 3.5 8t0.5 8t-1.5 8.5t-4 8t-5.5 6.5t-7 5z" />
    <glyph glyph-name="uniE604" unicode="&#xe604;" 
d="M512 -144q-115 0 -213 56.5t-154.5 154.5t-56.5 213q0 86 33 164t89.5 135t134.5 91t164 35q3 1 13 7q12 7 19 11t20 9t25 7q8 2 15 -0.5t12 -8.5t7 -14q2 -12 -5 -22t-19 -12q-14 -2 -45 -20q-9 -6 -14 -8.5t-12 -5t-13 -2.5q-99 0 -183.5 -49t-133.5 -133.5t-49 -183.5
t49 -183.5t133.5 -133.5t183.5 -49t183.5 49t133.5 133.5t49 183.5q0 144 -98 249q-15 17 -51 134q-22 -23 -40 -39t-30.5 -24t-22 -12.5t-17 -4t-10.5 1.5t-8 4q-11 6 -14 17.5t2 21.5q2 4 5.5 7.5t7.5 5t8 2.5t9 0q12 6 41.5 34.5t58.5 61.5q4 4 8.5 6.5t9.5 3.5t10 0
q17 -4 22 -20q43 -142 56 -162q35 -38 60 -84.5t38 -97.5t13 -105q0 -58 -15 -112.5t-42.5 -101.5t-66.5 -86t-85.5 -66.5t-101.5 -42.5t-113 -15zM523 38q-83 0 -139.5 43.5t-66.5 114.5h-26q-12 0 -20.5 8.5t-8.5 20.5q0 8 4 14.5t10.5 10.5t14.5 4h53q12 0 20.5 -8.5
t8.5 -20.5q0 -63 44 -96t106 -33q14 0 28 2t27 5.5t25.5 9.5t23 14t19 18t15 22t9.5 27t3 31q0 12 8.5 20.5t20.5 8.5h52q12 0 20.5 -8.5t8.5 -20.5q0 -6 -2.5 -11.5t-6.5 -9.5t-9 -6t-11 -2h-25q-13 -91 -97 -134q-49 -24 -109 -24zM419 377.5q0 -20.5 -15 -35t-35.5 -14.5
t-35 14.5t-14.5 35t14.5 35t35 14.5t35.5 -14.5t15 -35zM722 378q0 -8 -2.5 -16t-7 -14t-11 -10.5t-14 -7t-15.5 -2.5q-21 0 -35.5 14.5t-14.5 35t14.5 35t35.5 14.5q14 0 25.5 -6.5t18 -18t6.5 -24.5z" />
    <glyph glyph-name="uniE605" unicode="&#xe605;" 
d="M301 80q-23 0 -31 21h-4l1 14l1 1v7q4 30 15.5 58.5t29.5 53.5q35 47 88 73q-62 52 -62 136q0 74 49 125q24 25 56 38.5t66.5 13.5t66.5 -13.5t56 -38.5q9 -10 17 -21t14 -23.5t10 -25.5t6 -27t2 -28q0 -83 -62 -136q26 -13 48 -31t39 -41q18 -25 29.5 -53t15.5 -58
q2 -5 2 -9v-2v-1q0 -9 -4.5 -16.5t-12 -12t-16.5 -4.5q-7 0 -13 2.5t-10.5 7t-7 10.5t-2.5 13v2v3q-10 64 -59.5 106.5t-115.5 43.5h-3h-2q-65 -1 -114 -42.5t-60 -104.5v-5l1 -2v-1q0 -14 -10 -23.5t-24 -9.5zM510.5 556q-45.5 0 -78 -32.5t-32.5 -79t32.5 -79.5t78 -33
t78 33t32.5 79.5t-32.5 79t-78 32.5zM509 -186q-99 0 -190 38q-87 37 -154.5 104t-104.5 155q-38 90 -38 189q0 117 55 224q9 21 32 21q9 0 17 -5t13 -13t5 -17q0 -2 -0.5 -3.5t-0.5 -2.5v-2v-2l-2 -3q-47 -89 -47 -193q0 -113 55.5 -208.5t151 -151t208 -55.5t208 55.5
t151 151.5t55.5 209q0 112 -55.5 207t-151 150.5t-208.5 55.5q-46 0 -87.5 -8.5t-80.5 -26.5t-77 -46q-2 -2 -4 -3.5t-4.5 -2.5t-4.5 -1l-6 -2h-4q-15 0 -25 10.5t-10 24.5q0 6 2 12t7 11l1 1l1 1q131 99 293 99q49 0 96.5 -9.5t92.5 -28.5q89 -38 155 -104
q22 -22 41.5 -46.5t35 -51.5t27.5 -56q39 -91 39 -190q0 -33 -4.5 -65.5t-13 -63.5t-21.5 -61q-37 -88 -104 -155t-155 -104q-45 -19 -92.5 -28.5t-96.5 -9.5z" />
    <glyph glyph-name="uniE606" unicode="&#xe606;" 
d="M352 67q-12 0 -21.5 6t-15.5 15.5t-6 21.5v386q0 18 12.5 30.5t30.5 12.5h256q5 0 11 -1.5t10.5 -4.5t8.5 -7t6.5 -8.5t4.5 -10t2 -11.5v-50q0 -8 -6 -13.5t-14 -5.5h-25q-8 0 -13.5 5.5t-5.5 13.5v19q-1 11 -11 11h-193q-4 0 -7 -3t-3 -8v-324q0 -4 3 -7t7 -3h193
q4 0 7 3t4 7v19q0 5 2.5 9.5t6.5 7t10 2.5h25q8 0 14 -5.5t6 -13.5v-50q0 -12 -6 -21.5t-16 -15.5t-21 -6h-256zM668 189q-3 0 -5.5 1t-4.5 2t-4 3l-19 19q-3 3 -4.5 6.5t-1.5 7.5q0 2 1 4.5t2 4.5t3 4l29 29h-172q-3 0 -6 1t-5.5 3t-4 4.5t-2.5 5t-1 5.5v28q0 7 5.5 13
t13.5 6h172l-29 29q-6 6 -6 13.5t6 13.5l19 19q6 6 14 6q2 0 3.5 -0.5t3.5 -1t3 -1.5l3 -3l95 -94q5 -6 5 -14v-4q0 -2 -1 -3l-2 -4l-2 -2l-95 -95q-6 -6 -13 -6zM512 -186q-99 0 -189 38q-88 37 -155 104t-104 155q-39 90 -39 189q0 117 55 224q10 21 32 21q10 0 18 -5
t12.5 -13t4.5 -17q0 -2 -0.5 -4t-0.5 -4v-2l-2 -3q-47 -89 -47 -193q0 -113 55.5 -208.5t151 -151t208 -55.5t208 55.5t151 151.5t55.5 209q0 84 -33 160.5t-88.5 131.5t-132 88t-160.5 33q-135 0 -245 -81h-1q-4 -4 -10 -6.5t-13 -2.5q-9 0 -17 4.5t-13 12.5t-5 18
q0 6 2.5 12t6.5 11l1 1l1 1q131 99 293 99q49 0 97 -9.5t93 -28.5q89 -38 154 -104q34 -33 60 -72t45 -82q38 -91 38 -190q0 -33 -4.5 -65.5t-13 -63.5t-20.5 -61q-37 -88 -104.5 -155t-154.5 -104q-91 -38 -190 -38z" />
    <glyph glyph-name="uniE607" unicode="&#xe607;" 
d="M596 32q-23 0 -37 16q-6 7 -14 13t-17 10.5t-15 4.5t-15.5 -5t-17 -11t-11.5 -11q-4 -4 -8 -7t-9 -5t-10 -3t-11 -1q-10 0 -19 4l-2 1l-67 38l-2 1q-13 9 -18 25.5t2 32.5q2 3 3.5 9t1.5 11q0 23 -16 39t-39 16h-2h-1q-14 0 -24.5 10.5t-13.5 27.5q-1 2 -1.5 4.5t-1.5 9
t-1.5 13t-1 14.5t-0.5 15q0 25 6 56q1 9 4.5 16t9 12t11.5 7.5t13 2.5h1h2q23 0 39 16t16 39q0 9 -5 21q-7 15 -2 31.5t18 26.5l2 1l71 39l2 1q3 1 6 1.5t6.5 1t6.5 0.5q22 0 37 -15q9 -10 22.5 -18t21.5 -8q6 0 14.5 4t16.5 10t13 11q4 4 8 7t9 5l10 2q5 2 10 2q10 0 19 -4
l2 -1l69 -38l1 -1q14 -10 18.5 -26.5t-1.5 -32.5q-1 -1 -1.5 -2.5t-1 -3.5t-0.5 -5l-2 -4v-5q0 -23 16 -39t38 -16h3q10 0 18 -4.5t13.5 -13t7.5 -20.5q6 -31 6 -55.5t-6 -56.5q-2 -12 -7.5 -20.5t-13.5 -13t-18 -4.5h-3q-22 0 -38 -16t-16 -39q0 -9 5 -20q6 -16 1.5 -32.5
t-18.5 -25.5l-1 -1l-70 -39l-2 -1q-4 -2 -9 -3t-10 -1zM513 140q32 0 67 -25q9 -7 18 -16l43 24q-5 17 -5 32q0 45 29 78q28 32 70 39q3 20 3 32q0 5 -0.5 11t-1 11t-1.5 10q-42 7 -70 39q-7 8 -12.5 17t-9 19t-5.5 20.5t-2 21.5q0 8 1.5 16.5t3.5 15.5l-43 24
q-8 -8 -18 -15q-11 -8 -22 -13t-21.5 -7.5t-20.5 -2.5q-31 0 -64 24q-10 6 -19 14l-44 -24q5 -17 5 -32q0 -45 -30 -78q-28 -32 -70 -39q-1 -8 -1.5 -16.5t-0.5 -15.5q0 -12 2 -32q21 -3 39 -13t31 -26q15 -16 22.5 -36t7.5 -42q0 -15 -5 -32l41 -23q8 8 18 15q34 25 65 25z
M514 195q-46 0 -78 32t-32 77.5t32 77.5t78 32q29 0 54.5 -14.5t40.5 -40t15 -55.5q0 -17 -6 -34t-16 -30.5t-23.5 -23.5t-30 -15.5t-34.5 -5.5zM514 350q-8 0 -15 -2t-12.5 -6.5t-10 -10t-6.5 -12.5t-2 -15q0 -19 13.5 -32.5t32.5 -13.5t32.5 13.5t13.5 32.5t-13.5 32.5
t-32.5 13.5zM514 -177q-49 0 -97 9.5t-93 28.5q-87 37 -154.5 104t-104.5 155q-38 90 -38 189q0 117 55 224q9 21 32 21q7 0 13.5 -3t11 -7.5t7.5 -11t3 -13.5q0 -4 -2 -8v-2l-1 -3q-47 -89 -47 -193q0 -113 55.5 -208.5t151 -151t208 -55.5t208 55.5t151 151.5t55.5 209
q0 112 -55.5 207t-151 150.5t-208.5 55.5q-34 0 -66 -5t-62.5 -15t-59.5 -25t-57 -36q-2 -2 -4 -3.5t-4.5 -2.5t-5.5 -2h-4q-3 -1 -5 -1q-15 0 -25 10.5t-10 24.5q0 6 2 12t7 11l1 1l1 1q131 99 293 99q49 0 96.5 -9.5t92.5 -28.5q89 -38 155 -104q34 -33 60 -72t44 -82
q39 -91 39 -190q0 -33 -4.5 -65.5t-13 -63.5t-21.5 -61q-37 -88 -104 -155t-155 -104q-90 -38 -189 -38z" />
    <glyph glyph-name="uniE608" unicode="&#xe608;" 
d="M980 -114q-15 0 -26 10.5t-11 26.5v1q-1 4 -1 5q0 34 -7 65t-20 56.5t-28 48t-34 41t-37 33t-38 26.5t-34.5 20t-29.5 14l-1 1h-3q-22 -7 -45 -9q-10 -1 -33 -1h-4l-15 1l12 -10q63 -52 99 -126t38 -156v-1q0 -2 1 -9q0 -10 -5 -19t-13.5 -13.5t-18.5 -4.5
q-16 0 -27 10.5t-11 26.5v8v1q-2 76 -39 141t-99.5 105.5t-138.5 46.5v0q-13 -1 -26 -1h-6h-6q-3 0 -6.5 0.5t-6.5 0.5h-1q-115 -10 -195.5 -96.5t-81.5 -202.5v-2v-1q0 -8 -3 -15t-8 -12t-12 -7.5t-15 -2.5q-15 0 -26 10.5t-11 26.5v7q0 4 1 6v1q3 109 65 199
q60 88 157 132l8 4l-7 5q-45 35 -70 86q-13 26 -19.5 54t-6.5 57q0 50 19 96t54 81q24 24 52.5 40.5t60 24.5t64.5 8q67 0 125 -33l3 -1l2 1q29 17 60.5 25t64.5 8t65 -8t60 -24.5t52 -40.5q36 -35 54.5 -81t18.5 -96q0 -29 -6.5 -57.5t-19.5 -54.5q-6 -12 -13.5 -24
t-16.5 -22.5t-19 -20.5t-21 -19l-7 -5l8 -3q48 -22 88 -56t69 -78q62 -91 64 -201v-1q1 -2 1 -9q0 -16 -11 -26.5t-26 -10.5zM385 654q-49 0 -90.5 -24t-65.5 -65.5t-24 -90.5t24 -90.5t65.5 -65.5t90.5 -24q74 0 127 52.5t53 127.5q0 24 -6.5 47.5t-18 43.5t-28.5 36.5
t-36.5 28t-43 18t-47.5 6.5zM639 650q-29 0 -57 -10l-7 -2l5 -6q56 -69 56 -158q0 -44 -15 -85q-4 -13 -10.5 -25.5t-14 -24t-16.5 -22.5l-4 -6l7 -2q13 -5 27.5 -7t28.5 -2h1h1l17 1q29 3 55 15l4 2l4 2l2 1q42 23 66.5 64t24.5 90q0 35 -13.5 67.5t-37 56t-56 37.5
t-68.5 14z" />
    <glyph glyph-name="uniE609" unicode="&#xe609;" 
d="M207 -140q-56 0 -95 39t-39 95v544q0 56 39 95t95 39h405q15 0 25 -10t10 -24.5t-10 -24.5t-25 -10h-405q-27 0 -45.5 -19t-18.5 -46v-367l77 -89l146 284q8 16 26 19h5q15 0 25 -10l133 -131l153 234l-34 25q-30 23 -28.5 57.5t33.5 54.5l186 115q3 2 6.5 4t7.5 3t7.5 2
t7 1.5t7.5 0.5q8 0 14.5 -2t12.5 -6t10 -9q16 -21 8 -53l-52 -216q-3 -16 -12 -28t-22 -18.5t-28 -6.5q-11 0 -21.5 4t-20.5 11l-26 19l-173 -266q-9 -13 -26 -15h-4h-5q-3 0 -6 1l-4 2q-3 1 -5 3l-4 4l-130 127l-148 -287q-9 -17 -27 -19h-4q-16 0 -26 12l-59 67v-71
q0 -18 8.5 -32.5t23 -23t32.5 -8.5h557q13 0 25 5t20.5 13.5t13.5 20.5t5 25v348q0 14 10 24.5t25 10.5q9 0 17 -4.5t13 -13t5 -17.5v-348q0 -56 -39.5 -95t-94.5 -39h-557zM828 476l42 175l-151 -94z" />
    <glyph glyph-name="uniE60A" unicode="&#xe60a;" 
d="M483 -182q-8 0 -15.5 2.5t-14 7t-12.5 10.5q-15 17 -20 42l-19 76q-29 9 -57 23l-68 -43q-10 -7 -22 -10.5t-24 -3.5q-11 0 -22.5 3.5t-21.5 13.5l-42 42q-17 17 -15 44q1 22 15 43l43 73q-12 23 -19 46l-77 19q-25 5 -43 21.5t-18 40.5v60q0 16 9 30t23 23t29 12l75 17
q8 24 21 49l-43 72q-7 11 -10.5 22t-4.5 22q-2 27 15 44l42 42q10 9 21.5 13t22.5 4q25 0 46 -14l68 -44q7 4 14 7.5t14 6.5t14 5.5t14 4.5l19 76q6 25 21 42q17 19 41 19h60q16 0 30.5 -9t23 -22.5t11.5 -29.5l17 -76q13 -5 26.5 -10.5t26.5 -12.5l67 43q4 3 9.5 5.5
t11.5 4.5t12 3t12 1q5 0 10 -1t11 -2.5t12 -5t11 -8.5l42 -42q12 -12 14.5 -28.5t-1.5 -31t-13 -28.5l-41 -68q14 -26 23 -53l75 -17q16 -3 29.5 -12t22.5 -23t9 -30v-60q0 -12 -5 -23t-14 -18.5t-19.5 -13t-22.5 -7.5l-77 -20q-3 -8 -6 -16.5t-7 -16.5l-8 -16l41 -69
q14 -21 15 -43q2 -27 -15 -44l-42 -42q-10 -10 -21.5 -13.5t-22.5 -3.5q-5 0 -9.5 0.5t-9.5 2t-9.5 3t-9 3.5t-7.5 5l-67 42q-5 -2 -10.5 -4.5t-10.5 -5t-10 -4.5t-10.5 -4t-10.5 -3l-17 -77q-2 -12 -8 -23t-14.5 -19.5t-19.5 -13.5t-24 -5h-59v-1zM540 -118q4 4 5 11
l25 113l34 11q23 7 45 19l31 16l100 -63q2 -2 8 -4l38 38q0 1 -0.5 2t-1 2.5t-1.5 3.5t-2 5l-60 98l16 31q10 20 18 43l10 32l112 28q7 2 12 5l1 51q-4 5 -11 6l-112 25l-11 34q-3 11 -8 22t-11 24l-16 30l60 100q4 6 5 12l-38 37q-2 0 -4.5 -1t-5.5 -3l-98 -62l-31 16
q-23 12 -46 19l-33 11l-26 115q0 2 -3 7v1h-54q-3 -5 -5 -12l-27 -111l-33 -10q-12 -4 -24.5 -9t-24.5 -12l-31 -17l-102 65q-2 2 -8 4l-38 -38q1 -6 6 -13l61 -102l-15 -30q-4 -8 -7 -15l-6 -14q-3 -7 -5 -14l-11 -34l-114 -25q-2 -1 -7 -3l-1 -1v-53q5 -3 13 -5l111 -28
l10 -33q7 -18 17 -39l15 -30l-62 -103q-4 -6 -5 -12l38 -37q5 0 10 4l100 64l32 -17q24 -13 48 -21l33 -10l28 -112q2 -7 5 -12h52zM512.5 118q-75.5 0 -129 53.5t-53.5 128.5q0 49 24.5 91t66.5 66.5t91.5 24.5t91.5 -24.5t66.5 -66.5t24.5 -91q0 -75 -53.5 -128.5
t-129 -53.5zM512 418q-49 0 -83.5 -34.5t-34.5 -83.5t34.5 -83.5t83.5 -34.5q32 0 59 16t43 43t16 59q0 24 -9.5 46t-25 37.5t-37.5 25t-46 9.5z" />
    <glyph glyph-name="uniE60B" unicode="&#xe60b;" 
d="M64 507q6 -11 17.5 -15t22.5 2l419 212l419 -212q6 -3 12 -3.5t11.5 1.5t10 5.5t7.5 9.5l7 14q3 7 3 15t-4.5 14.5t-11.5 10.5l-440 223q-6 3 -14 3q-7 0 -14 -3l-439 -223q-7 -4 -11.5 -10.5t-4.5 -14t3 -15.5zM525 -202h-1h-2q-8 0 -15.5 2t-14.5 6q-61 38 -131.5 52.5
t-138.5 14.5q-55 0 -108 -8h-7q-14 0 -25 6.5t-17.5 17.5t-6.5 24v517q0 10 4.5 20t12.5 17t19 10q34 9 68.5 13.5t68.5 4.5h22q103 -5 198 -51q23 -11 41.5 -22.5t30.5 -20.5q32 23 73 43q105 51 220 51q17 0 34.5 -1t34.5 -3.5t34 -6t34 -7.5q16 -5 26 -18t10 -29v-517
q0 -6 -2 -12.5t-5 -12t-7.5 -10t-10 -7.5t-11.5 -4.5t-13 -1.5h-7q-53 8 -108 8q-161 0 -270 -67q-14 -8 -30 -8zM222 -60q151 0 267 -56v459q-28 22 -69 42q-40 19 -83 30q-17 5 -35 8t-36 4.5t-35 1.5q-53 0 -106 -13v-482q4 0 9 0.5t10.5 1.5t11 1t12.5 1h12q7 1 13.5 1
t14 0.5t14.5 0.5zM558 -116q116 56 267 56q48 0 97 -6v482q-53 13 -106 13q-18 0 -35.5 -1.5t-35.5 -4.5t-36 -8q-21 -5 -41.5 -12.5t-40.5 -17.5q-17 -8 -33.5 -18t-23.5 -15t-12 -9v-459z" />
    <glyph glyph-name="uniE60C" unicode="&#xe60c;" 
d="M510 -185q-5 0 -9.5 1.5t-8.5 3.5t-7.5 5.5t-5.5 7.5t-3.5 8.5t-1.5 9.5q0 10 5 18t13 13t18 5h286q30 0 56 15t41 41t15 56v58h-233q-40 0 -68.5 29t-28.5 69v141q0 40 28.5 69t68.5 29h233v58q0 46 -33 79t-79 33h-568q-30 0 -56 -15t-41 -41t-15 -56v-453
q0 -46 33 -79t79 -33h113q10 0 18 -5t13 -13t5 -18q0 -15 -10.5 -25.5t-25.5 -10.5h-113q-76 0 -130 54t-54 130v588q0 76 54 130t130 54h344q64 0 114 -40q46 -36 63 -92v-3h47q50 0 92.5 -24.5t67 -67t24.5 -92.5v-453q0 -50 -24.5 -92.5t-67 -67t-92.5 -24.5h-286z
M675 322q-7 0 -13 -3.5t-9 -9.5t-3 -13v-141q0 -11 7.5 -18.5t17.5 -7.5h233v193h-233zM228 699q-40 0 -71.5 -25.5t-38.5 -65.5l-2 -10l8 6q47 32 104 32h445l-3 6q-6 10 -14 19t-17.5 16t-20.5 12t-22.5 7.5t-23.5 2.5h-344zM717 182q-6 0 -11 5t-5 11v54q0 7 5 11.5
t11 4.5h55q4 0 7.5 -2t5.5 -5.5t2 -8.5v-54q0 -6 -4.5 -11t-10.5 -5h-55z" />
    <glyph glyph-name="uniE60D" unicode="&#xe60d;" 
d="M424 747q-100 0 -178 -44q1 -2 1 -5v-4q0 -2 -1 -5t-1 -5q-1 -6 1 -12t7.5 -13.5t8.5 -11t13.5 -13.5t13.5 -13q110 -110 133 -136q-9 -8 -43.5 -43t-52.5 -52q-24 23 -71 71.5t-62 63.5q-4 4 -11 11.5t-12 12.5t-11 10t-11 8t-19.5 1t-19.5 -1q-28 -54 -38.5 -107
t-3.5 -109q12 -109 89 -195q41 -46 91 -72.5t103 -36.5q99 -19 196 15q21 -20 58 -56t54 -53q5 -6 24.5 -26.5t28.5 -29t25.5 -20t30.5 -16.5q48 -18 102.5 2t78.5 76q15 34 11 73q-4 41 -25 67q-8 12 -56 58v0q-5 4 -11 10t-11.5 11t-11.5 10l-11 12l-11 11l-27 27l-24 24
q-5 5 -16.5 17.5t-19.5 20t-16 11.5q-22 10 -40.5 -9.5t-8.5 -40.5q2 -6 8 -13.5t12 -12.5t14.5 -13t13.5 -13q17 -17 52.5 -51.5t51.5 -51.5l5 -5h1q1 -2 7 -8.5t10 -9.5q34 -36 38 -46v0l1 -1q6 -21 -1.5 -41.5t-24 -32.5t-37.5 -15.5t-40 8.5q-5 3 -9.5 8t-10.5 11.5
t-9 10.5q-19 18 -88.5 86.5t-102.5 101.5q-50 -27 -100.5 -36.5t-104 2t-101.5 45.5q-41 29 -66.5 67.5t-38.5 81.5q-25 78 -3 152l1 -1l1 -1l1 -1l1 -1l1 -1l1 -1v-1l1 -1l1 -1l1 -1l1 -1l1 -1l1 -1l1 -1l1 -1l1 -1l1 -1l1 -1l1 -1l1 -1l1 -1l1 -1l1 -1l1 -1l1 -1l1 -1
l1 -1l1 -1l1 -1l1 -1l1 -1l1 -1l1 -1l1 -1l1 -1l1 -1l1 -1l1 -1l1 -1l1 -1h1l1 -1l1 -1l1 -1l1 -1l1 -1l1 -1l1 -1l1 -1l1 -1l1 -1l1 -1l1 -1l1 -1l1 -1l1 -1l1 -1l1 -1l1 -1l1 -1l1 -1l1 -1l1 -1l1 -1l1 -1l1 -1l1 -1l1 -1l1 -1l1 -1l1 -1l1 -1l1 -1l1 -1l1 -1l1 -1l1 -1
l1 -1l1 -1l1 -1l1 -1l1 -1l1 -1l1 -1l1 -1l1 -1l1 -1l1 -1l1 -1l1 -1l1 -1l1 -1l1 -1l1 -1l1 -1l1 -1l1 -1l1 -1l1 -1l1 -1l1 -1l1 -1l1 -1l1 -1l1 -1l1 -1l1 -1l1 -1l1 -1l1 -1l1 -1l1 -1l1 -1l1 -1l1 -1l1 -1l1 -1l1 -1l1 -1l1 -1l1 -1l1 -1l1 -1l1 -2q5 -4 13.5 -13.5
t14.5 -15.5t13 -10q5 -2 10.5 -3t11.5 1t10 4t11 8t10 9l12 11l11 12l1 1l1 1l1 1l1 1l1 1l1 1l1 1l1 1l1 1l1 1l1 1l1 1l1 1l1 1l1 1l1 2l1 1l1 1l1 1l1 1l1 1l1 1l1 1l1 1l1 1l1 1l1 1l1 1l1 1l1 1l1 1l1 1l1 1l1 1l1 1l1 1l1 1l1 1l1 1l1 1l1 1l2 1q4 4 27 25t37 36.5
t17 26.5q7 21 -23 52q-3 2 -8 7l-5 6q-73 73 -125 126q142 33 249 -56q22 -19 39.5 -41t29 -44t19 -45.5t10.5 -45t2 -41.5v-7q0 -3 -0.5 -5.5t-0.5 -5.5v-6q0 -3 1 -6q10 -22 32.5 -25t36.5 17q5 8 5 44q0 122 -83 223q-56 66 -125.5 95.5t-140.5 29.5z" />
    <glyph glyph-name="uniE60E" unicode="&#xe60e;" 
d="M647 -45q-5 0 -10.5 1.5t-10.5 5.5l-306 144q-8 6 -12 15t-3 18.5t7 16.5q11 15 29 15q6 0 11.5 -1.5t9.5 -5.5l249 -117v590l-4 -2q-283 -130 -288 -132h-1q-7 -3 -14 -3h-161l1 -317h43q15 0 25.5 -10.5t10.5 -25t-10.5 -25.5t-25.5 -11h-75h-8q-14 2 -23 12t-9 24v390
q0 15 10.5 25.5t24.5 10.5q10 0 190 -1h1l325 147h1q2 2 5 4t5.5 3t6 1.5t6.5 0.5q22 0 32 -20q5 -10 4 -21v-1v-699q0 -1 -1 -3v-3q-3 -8 -6 -11q-1 -3 -3 -5t-4.5 -3.5t-4.5 -2.5l-6 -2q-2 -1 -5 -1.5t-6 -0.5zM846 131q-4 0 -8 1t-7.5 2.5t-6.5 4t-5.5 5.5t-4.5 6.5
t-2.5 7.5t-1.5 8q1 6 2.5 13.5t3.5 11.5h1v1q5 6 12 10v0q59 58 59 141q0 41 -16 78.5t-46 65.5v0l-6 5v1q-10 10 -10 23v1v3q0 8 3 14.5t7.5 11t11.5 7.5t14 3q9 0 17 -4q7 -4 12 -11l1 -1q40 -37 62 -88q12 -25 17.5 -52.5t5.5 -56.5q0 -58 -23 -110q-23 -51 -63 -88
l-1 -1q-3 -5 -9 -8q-9 -5 -19 -5z" />
    <glyph glyph-name="uniE60F" unicode="&#xe60f;" 
d="M317 567q0 6 2 12.5t5 12.5t6.5 11.5t7.5 11t8 10t8 8.5q8 9 16.5 16t16.5 12q62 43 120 43h11q14 0 30.5 -4t32.5 -10t30 -13.5t26 -15.5q26 -18 47 -44.5t21 -50.5v-154q0 -11 -1.5 -25t-4.5 -26t-6 -23q-18 -71 -58 -113q-2 -2 -6 -5.5t-6 -5.5q-10 -9 -15 -19t-5 -25
q0 -30 23 -46q6 -4 46 -24q10 -5 21 -10t26 -12q7 -4 16 -8t14.5 -7t15.5 -8q42 -20 47 -22q16 -7 47 -23q3 -1 7.5 -3t8.5 -4l8 -4q4 -2 7 -4.5t5 -6.5t3 -7t1.5 -8.5t0.5 -8.5v-9v-9v-34h-777q-1 3 -1 35q0 27 2 33q2 5 4.5 9t7.5 7t8 5t10.5 5t9.5 4q8 5 24.5 12.5
t22.5 10.5q8 4 18 8.5t19 8.5l18 10q9 4 19.5 9t18.5 9q7 4 23 11t24 11q5 3 14.5 7.5t17 8t14.5 8.5q10 5 17.5 17.5t7.5 26.5q0 29 -21 47q-3 2 -6 5q0 1 -2 3q-2 1 -3 3q-4 4 -10 12t-9 11.5t-7.5 10.5t-8.5 16q-14 25 -25 62q-13 48 -13 73v156zM66 0v-93q1 -1 1.5 -4
t1.5 -7.5t3 -8.5q4 -8 9.5 -14t11 -9t10 -5t8.5 -3t5 -1h791q1 0 2 0.5t2.5 0.5t3 0.5t3.5 1t4 1.5l4 2q2 1 4 2.5t4.5 3.5t5.5 4q6 7 10 15q2 4 3 8t1.5 7t1.5 4v97q0 1 -1.5 4.5t-2.5 5.5q-6 11 -15.5 19.5t-22.5 15.5q-18 9 -51.5 25t-46.5 22q-6 4 -19.5 10t-19.5 10
l-118 56q2 2 7.5 7t13.5 13t15 18l18 26q32 57 44 131l5 54v117q0 40 -4 55q-10 42 -42 75q-15 15 -29 28q-15 12 -34 24t-38 21q-12 5 -32.5 11t-34.5 8q-17 4 -25 4h-25q-1 0 -12 -2t-14 -2q-3 -1 -23 -6q-30 -7 -62 -24t-53 -35q-23 -22 -29 -29q-2 -3 -4.5 -6t-4 -5
t-4 -4.5t-4 -5t-3.5 -6t-4 -7.5q-11 -18 -15.5 -34.5t-4.5 -24.5v-38v-59q0 -82 6 -112q17 -90 58 -146q14 -19 19 -24l7 -8l15 -14q-6 -2 -13 -5.5t-14.5 -7t-12.5 -5.5q-20 -9 -60 -29t-59 -29l-40 -19q-6 -3 -19.5 -9t-20.5 -10q-46 -22 -57 -45q-1 -2 -2 -6t-2 -5z" />
    <glyph glyph-name="uniE610" unicode="&#xe610;" horiz-adv-x="1025" 
d="M198 -153q-28 0 -47.5 19.5t-19.5 47.5v774q0 27 19.5 47t47.5 20h639q28 0 47.5 -20t19.5 -47v-774q0 -28 -19.5 -47.5t-47.5 -19.5h-639zM217 706q-10 0 -19.5 -5.5t-14.5 -14.5t-5 -20v-730q0 -8 3 -15.5t8.5 -13t12.5 -8.5t15 -3h601q17 0 28.5 11.5t11.5 28.5v730
q0 16 -11.5 28t-28.5 12h-601zM266 -10q-10 0 -16.5 6.5t-6.5 16.5q0 6 3 11.5t8.5 9t11.5 3.5h503q10 0 17 -7t7 -17t-7 -16.5t-17 -6.5h-503zM266 187q-10 0 -16.5 7t-6.5 16.5t6.5 16.5t16.5 7h503q5 0 9.5 -2t7.5 -5q2 -2 3.5 -4.5t2.5 -5.5t1 -6q0 -5 -2 -9.5t-5 -7.5
t-7.5 -5t-9.5 -2h-503zM358 310q-5 0 -9.5 2t-7.5 5t-5 7.5t-2 9.5v86h-74q-10 0 -17 7t-7 17t7 17t17 7h74v61h-74q-6 0 -11.5 3.5t-9 9t-3.5 12t3.5 12.5t9 9t11.5 3h17l-24 24q-7 7 -7.5 17t6.5 17t17 7q5 0 9.5 -1.5t7.5 -5.5l59 -58h27l59 58q2 3 4.5 4.5t5.5 2t7 0.5
q10 0 17 -7t6.5 -17t-7.5 -17l-24 -24h16q10 0 17 -7t7 -17t-7 -17.5t-17 -7.5h-74v-61h74q6 0 11.5 -3t9 -8.5t3.5 -12.5q0 -10 -7 -17t-17 -7h-74v-86q0 -10 -7 -17t-17 -7zM558 381q-11 0 -19 8t-8 19q0 7 3.5 13.5t9.5 10t14 3.5h208q11 0 19 -8t8 -19t-8 -19t-19 -8
h-208zM558 579q-11 0 -19 7.5t-8 18.5q0 8 3.5 14t9.5 9.5t14 3.5h208q11 0 19 -7.5t8 -19t-8 -19t-19 -7.5h-208z" />
    <glyph glyph-name="uniE611" unicode="&#xe611;" 
d="M791 -147h-560q-69 0 -118.5 49t-49.5 119v112v336v112q0 69 49.5 118.5t118.5 49.5h336q36 0 68 -14.5t55.5 -40t34.5 -57.5h66q70 0 119 -49.5t49 -118.5v-84v-224v-140q0 -70 -49 -119t-119 -49zM567 693h-336q-16 0 -32 -5t-29 -14t-23.5 -21t-17 -27t-8.5 -32
q48 43 110 43h433q-15 25 -40.5 40.5t-56.5 15.5zM903 357q0 3 -0.5 6t-2 6t-3.5 5.5t-4 4t-5 3t-6 2.5t-7 1h-280q-5 0 -10.5 -2.5t-9 -6t-6 -9t-2.5 -10.5v-168q0 -8 4 -14.5t10.5 -10t13.5 -3.5h280q12 0 20 8t8 20v168zM903 105h-336q-23 0 -39.5 16t-16.5 40v224
q0 23 16.5 39.5t39.5 16.5h336v28q0 46 -32.5 79t-79.5 33h-560q-30 0 -56 -15t-41 -41t-15 -56v-448q0 -47 33 -79.5t79 -32.5h560q47 0 79.5 32.5t32.5 79.5v84zM623 301h56v-56h-56v56zM623 301z" />
    <glyph glyph-name="uniE612" unicode="&#xe612;" 
d="M586 -92l13 12q4 4 5 11t-2 13l-10 24q-1 1 -1.5 2t-0.5 2q-47 -40 -76 -52q-19 7 -49 29.5t-69 61t-80.5 102t-70.5 138.5q-50 124 -53 298q0 5 3 9.5t7 6.5q109 51 198.5 85t114 34t114 -34t197.5 -84q11 -6 10 -17q-3 -175 -53 -298q-5 -14 -11 -28t-13 -27q2 -3 2 -7
v-18q0 -2 1 -5l2 -4q1 -3 3 -5t4 -3l4 -2l22 -9q22 43 40 87q55 139 59 332q0 10 -4.5 22t-13 21t-17.5 14q-61 28 -124.5 55t-131 50.5t-93 23.5t-92.5 -23.5t-131 -50.5t-125 -56q-17 -7 -26.5 -23t-9.5 -34q4 -192 59 -331q28 -70 66.5 -132.5t75 -104.5t73.5 -73.5
t63 -47t42 -19.5q3 -1 5 -1q3 0 6 1q12 3 29 12t37 24q-2 3 -2.5 6.5t1 6.5t3.5 6zM512 300zM291 345h448v-64h-448v64zM483 537h64v-448h-64v448zM893 25q0 2 -0.5 4t-2.5 3.5t-4 2.5t-4 1h-16q-13 0 -16 12l-9 21q-3 4 -2 10t5 10l12 11l2 4q1 2 1 4t-1 4l-2 4l-20 20
l-2 2h-4q-1 1 -2 1q-2 0 -4 -1l-4 -2l-12 -12q-9 -9 -19 -3l-21 9q-12 3 -12 16v16q0 5 -3 8q-2 1 -3 2t-2 1h-3h-28q-3 0 -5 -0.5t-3 -2.5q-3 -3 -3 -8v-16q0 -13 -12 -16l-21 -9q-11 -6 -20 3l-12 12q-1 1 -3 2t-4 1q-5 0 -8 -3l-20 -20q-2 -2 -2.5 -4t-0.5 -4q0 -4 3 -8
l12 -11q9 -9 3 -20l-9 -21q-4 -12 -16 -12h-17q-2 0 -4 -1t-3 -2q-4 -4 -4 -8v-28q0 -5 4 -8l2 -2q1 -1 2 -1h3h17q5 0 10 -3.5t6 -8.5l9 -21q6 -11 -3 -20l-12 -12q-2 -1 -2.5 -3t-0.5 -4q0 -5 3 -8l20 -20q1 -1 3 -2t4.5 -1t4.5 0.5t3 2.5l12 12q9 9 20 3l21 -9
q12 -4 12 -16v-17q0 -4 3 -7q3 -4 8 -4h28q4 0 8 4q1 1 1.5 2t1 2.5t0.5 2.5v17q0 12 12 16l21 9q11 6 20 -3l11 -12q4 -3 8 -3q2 0 4 0.5t4 2.5l20 20q3 3 3 7.5t-3 7.5l-12 12q-9 9 -3 20l9 21q0 1 1 3t2 3t2.5 2t3.5 2t3.5 1.5t3.5 0.5h16q3 0 5 0.5t3 2.5q3 3 3 8v28v0z
M793 11q0 -17 -8 -31.5t-22.5 -22.5t-31.5 -8t-31.5 8t-23 22.5t-8.5 31.5q0 26 18.5 44t44.5 18q12 0 24 -5t20 -13t13 -19.5t5 -24.5z" />
    <glyph glyph-name="uniE613" unicode="&#xe613;" 
d="M512 -212l-80 33q-230 107 -314 246q-41 69 -41 140v450l435 155l435 -155v-450q0 -55 -24.5 -107.5t-61 -92.5t-86.5 -77.5t-91 -61t-86 -44.5t-61 -27t-25 -9zM913 635l-401 143l-401 -143v-422q0 -51 22 -100t57.5 -86.5t78.5 -71.5t85 -57.5t78.5 -41t57.5 -26
t22 -8.5q8 3 22.5 8.5t56.5 25.5t79.5 41.5t84 57t79.5 72.5t56 86t23 100v422zM695 206h-166v-166q0 -5 -4 -9t-9 -4h-8q-5 0 -9 4t-4 9v166h-166q-6 0 -9.5 4t-3.5 9v8q0 4 1.5 7t4.5 4.5t7 1.5h166v94h-166q-4 0 -7 2t-4.5 5t-1.5 6v8q0 13 13 13h145l-144 165
q-4 3 -4.5 8.5t3.5 10.5l5 7q8 9 18 1l153 -177q7 -5 4 -15h4q-3 9 3 15l154 177q4 4 9.5 3.5t8.5 -4.5l5 -7q8 -10 -2 -19l-141 -165h145q13 0 13 -13v-8q0 -5 -3.5 -9t-9.5 -4h-166v-94h166q4 0 7 -1.5t4.5 -4.5t1.5 -7v-8q0 -5 -3.5 -9t-9.5 -4z" />
    <glyph glyph-name="uniE614" unicode="&#xe614;" 
d="M504 -148q-26 0 -51.5 3t-51 9t-49.5 14.5t-47 20.5t-45 26l-5 3l36 45l4 -3q96 -61 209 -61q105 0 194 51.5t141 141t52 193.5q0 63 -19.5 122t-55.5 106.5t-83.5 83.5t-106.5 55.5t-122 19.5q-105 0 -194 -52t-140.5 -141t-51.5 -194q0 -128 76 -230l2 -3l-40 -42l-3 5
q-44 57 -68 125q-24 70 -24 145q0 91 35 173q11 26 25 51t31.5 47.5t38.5 42.5q61 61 141 95q82 35 172.5 35t172.5 -35q80 -34 141 -95q15 -15 28.5 -31.5t25.5 -34.5t22.5 -36.5t18.5 -38.5q35 -82 35 -172.5t-35 -172.5q-34 -80 -95 -141q-20 -21 -43 -38t-47.5 -31.5
t-50.5 -25.5q-82 -35 -173 -35zM484 40v156h-173v57h173v84h-173v57h132l-96 96l41 41l124 -124l124 124l41 -41l-95 -96h131v-57h-172v-84h172v-57h-172v-156h-57z" />
    <glyph glyph-name="uniE615" unicode="&#xe615;" horiz-adv-x="1134" 
d="M786 150q10 0 18 -3.5t13.5 -10t5.5 -15.5q0 -11 -11.5 -20t-25.5 -9h-186v-107q0 -11 -11 -20t-29 -9q-16 0 -26.5 9t-10.5 20v107h-187q-13 0 -24.5 9t-11.5 20t11.5 20t24.5 9h187v91h-187q-14 0 -25 8.5t-11 21.5q0 11 11.5 20t24.5 9h158l-161 238q-6 7 -5.5 14
t6.5 13.5t17 12.5q14 5 28 1.5t23 -12.5l165 -241l161 241q8 11 22.5 14t28.5 -3q13 -5 18.5 -17t-0.5 -20l-168 -241h154q14 0 25 -8t11 -21t-11 -21.5t-25 -8.5h-187v-91h190zM728 -106q-38 -16 -81 -24.5t-87 -8.5q-89 0 -170.5 35t-140.5 94t-93.5 140t-34.5 170
q0 90 33 161l65 -40q11 -9 20.5 -3.5t9.5 21.5l-8 194q0 14 -9.5 20.5t-23.5 1.5l-179 -84q-13 -6 -13 -15.5t13 -17.5l62 -37q-40 -98 -40 -201q0 -104 41 -198.5t109.5 -163.5t163 -109.5t198.5 -40.5q121 0 223 51q2 1 4 3.5t6 9t6 13t0.5 16t-8.5 17.5q-7 6 -16 8
t-17.5 0t-16 -4.5t-12.5 -5.5zM1119 103l-77 32q14 40 22 81t8 84q0 59 -13.5 116.5t-39 108t-60.5 95t-79.5 79.5t-95 60.5t-108 39t-116.5 13.5q-18 0 -34.5 -1t-33 -3.5t-32.5 -5.5t-32 -7t-31.5 -9.5t-30.5 -11.5t-30 -13q-1 -1 -3 -2.5t-6.5 -7t-7 -11t-1.5 -14
t7 -16.5q9 -12 25.5 -13t28.5 4l12 5q77 33 169 33q71 0 138 -22.5t120.5 -63t94.5 -94.5t63 -121t22 -138q0 -73 -22 -139l-65 29q-14 6 -21.5 -1t-4.5 -21l37 -193q1 -10 6.5 -15t13 -5t16.5 5l165 110q11 8 10.5 17.5t-14.5 15.5zM1119 103z" />
    <glyph glyph-name="uniE616" unicode="&#xe616;" 
d="M640 136v13v103h39v-103h77v-39h-116v26zM892 136h-39q-7 0 -7 6v7q-1 34 -15 65t-37.5 53.5t-55 35.5t-66.5 13q-47 0 -87 -23t-63.5 -63t-23.5 -88q0 -72 51 -123t123 -51q62 0 110 39l-77 77h155v-155l-42 42q-63 -54 -146 -54q-93 0 -159 66t-66 159.5t66 159.5
t159 66q89 0 154 -60.5t71 -148.5q1 -1 1 -2v-2v-13q0 -2 -2 -4t-4 -2zM563 458v39h129v-39h-129zM253 149h155v-39h-155v39zM498 381v-39h-103v-116h-39v116h-103v39h103v77h-103v39h49l-49 48l29 29l78 -77h32l77 77l29 -29l-48 -48h48v-39h-103v-77h103zM769 613
q0 7 -3.5 13t-9.5 9.5t-13 3.5h-541q-11 0 -18.5 -7.5t-7.5 -18.5v-593q0 -11 7.5 -18.5t18.5 -7.5h251q7 -10 14.5 -19t15.5 -17t17 -16h-318q-16 0 -29 8t-21 21.5t-8 28.5v632q0 24 17 41t41 17h581q24 0 41 -17t17 -41v-271q-24 16 -52 27v225z" />
    <glyph glyph-name="uniE617" unicode="&#xe617;" 
d="M561 192h77v51h-51l83 152h-86l-57 -126h-24l-58 126h-87l82 -152h-51v-51h76l8 -15v-25h-84v-51h84v-73h81v73h84v51h-84v25zM824 636h-56v-56h28v-671h-563v671h28v56h-56q-12 0 -20 -8t-8 -20v-727q0 -12 8 -20t20 -8h619q11 0 19.5 8t8.5 20v727q0 12 -8.5 20
t-19.5 8zM738 638h-112v56q0 23 -16.5 39.5t-39.5 16.5h-112q-15 0 -28 -7.5t-20.5 -20.5t-7.5 -28v-56h-112v-112h448v112zM570 638h-112v56h112v-56z" />
    <glyph glyph-name="uniE618" unicode="&#xe618;" 
d="M889 320l-128 160q-2 3 -5 5t-6 3.5t-6.5 2.5t-7.5 1q-5 0 -11 -2t-11 -6.5t-7.5 -10.5t-2.5 -13v-96h-256q-27 0 -45.5 -18.5t-18.5 -45.5t18.5 -45.5t45.5 -18.5h256v-96q0 -23 21 -30q6 -2 11 -2q15 0 25 12l128 160q16 20 0 40zM576 44h-192h-64v0q-27 0 -45.5 18.5
t-18.5 45.5v64v256v64v0q0 27 18.5 45.5t45.5 18.5h64h192q27 0 45.5 18.5t18.5 45.5t-18.5 45.5t-45.5 18.5h-320q-53 0 -90.5 -37.5t-37.5 -90.5v-512q0 -53 37.5 -90.5t90.5 -37.5h320q27 0 45.5 18.5t18.5 45.5t-18.5 45.5t-45.5 18.5z" />
    <glyph glyph-name="uniE619" unicode="&#xe619;" 
d="M512 142q-21 0 -39.5 -10.5t-29 -28.5t-10.5 -39q0 -16 6.5 -30.5t17 -25.5t25 -17t30.5 -6q33 0 56 23t23 55.5t-23 55.5t-56 23zM512 812q-139 0 -257 -68.5t-186.5 -186.5t-68.5 -257t68.5 -257t186.5 -186.5t257 -68.5t257 68.5t186.5 186.5t68.5 257t-68.5 257
t-186.5 186.5t-257 68.5zM512 -133q-88 0 -168.5 34t-138.5 92t-92 138.5t-34 168.5q0 118 58 217.5t157.5 157.5t217.5 58t217.5 -58t157.5 -157.5t58 -217.5t-58 -217.5t-157.5 -157.5t-217.5 -58zM512 615q-33 0 -56 -23t-23 -56v-236q0 -21 10.5 -39.5t29 -29
t39.5 -10.5t39.5 10.5t29 29t10.5 39.5v236q0 33 -23 56t-56 23z" />
    <glyph glyph-name="uniE61A" unicode="&#xe61a;" 
d="M512 -212q-185 0 -326 122q-135 117 -168 293q-9 48 -9 97q0 104 40 199t107.5 163.5t160.5 109t195 40.5q69 0 134 -18.5t120 -51.5t101.5 -80.5t79 -103.5t51 -122t18.5 -136q0 -83 -25.5 -161.5t-72.5 -141t-108.5 -110t-138.5 -73.5t-159 -26zM512.5 758
q-91.5 0 -175 -36.5t-144 -97.5t-96 -146t-35.5 -178q0 -47 9 -92.5t26 -86t42 -77.5t55 -68t66.5 -56t76.5 -42t84.5 -26.5t90.5 -9.5q92 0 175 36.5t143.5 97.5t96 146t35.5 178t-35.5 178t-96 146t-143.5 97.5t-174.5 36.5zM729 23h-431q-12 0 -22 5.5t-15.5 15
t-5.5 20.5v325q0 11 5.5 20.5t15.5 15t22 5.5h43q0 67 50.5 115t121.5 48q18 0 35 -3.5t32.5 -9.5t29.5 -15t25.5 -20t21 -24t16 -27.5t10 -30.5t3.5 -33h43q11 0 21 -5.5t16 -15t6 -20.5v-325q0 -11 -6 -20.5t-16 -15t-21 -5.5zM470 197v-92h86v92q43 24 43 70q0 34 -25 58
t-60.5 24t-61 -24t-25.5 -58q0 -14 5.5 -28t15 -24.5t22.5 -17.5zM513 552q-26 0 -50 -9.5t-41 -26t-27.5 -39t-10.5 -47.5h259q0 50 -38 86t-92 36z" />
    <glyph glyph-name="uniE61B" unicode="&#xe61b;" 
d="M512 812q-139 0 -257 -68.5t-186.5 -186.5t-68.5 -257t68.5 -257t186.5 -186.5t257 -68.5t257 68.5t186.5 186.5t68.5 257t-68.5 257t-186.5 186.5t-257 68.5zM806 433l-331 -331q-12 -12 -28 -13.5t-29 5.5q-2 2 -4.5 4t-4.5 4l-191 190q-9 9 -12 21t0 24t12 21
q14 13 33 13t33 -13l158 -158l298 298q14 14 33 14t32.5 -13.5t13.5 -33t-13 -32.5z" />
    <glyph glyph-name="uniE61C" unicode="&#xe61c;" 
d="M512 -212q-102 0 -195.5 40.5t-160.5 109t-107 163.5t-40 199t40 199t107 163.5t160.5 109t195.5 40.5t195.5 -40.5t160.5 -109t107 -163.5t40 -199t-40 -199t-107 -163.5t-160.5 -109t-195.5 -40.5zM512 758q-91 0 -174.5 -36.5t-144 -97.5t-96 -146t-35.5 -178
q0 -174 113 -304q109 -125 270 -149q34 -5 67 -5q91 0 174.5 36.5t144 97.5t96 146t35.5 178t-35.5 178t-96 146t-144 97.5t-174.5 36.5zM512 4q-50 0 -88 1t-65.5 3.5t-46 4.5t-29.5 6.5t-17 8t-7 11t0 12t3.5 14.5t3.5 16q4 28 29.5 45t64.5 30.5t53 22.5q16 10 19.5 29.5
t1 31t-4.5 16.5q-19 16 -33.5 38.5t-22.5 48.5q-10 3 -17.5 14.5t-9.5 27.5q-1 12 0.5 22t6 17t11.5 10q5 73 42 117.5t106 44.5v0q47 0 79.5 -22t49 -57.5t19.5 -82.5q10 -4 15 -18t3 -31q-2 -16 -9.5 -27.5t-17.5 -14.5q-17 -54 -56 -87q-1 -2 -2.5 -7t-2.5 -15t0 -19.5
t6 -19.5t15 -16q13 -8 40 -18.5t47.5 -18t38.5 -23.5t21 -38q1 -6 4 -18q7 -26 -5 -36q-28 -22 -243 -23h-1h-1z" />
    <glyph glyph-name="uniE61D" unicode="&#xe61d;" 
d="M512 -212q-102 0 -195 40.5t-160.5 109t-107.5 163.5t-40 199q0 69 18 135.5t50.5 122.5t79 103.5t102 80.5t120.5 51.5t133 18.5q102 0 195.5 -40.5t161 -109t107.5 -163.5t40 -199t-40 -199t-107.5 -163.5t-161 -109t-195.5 -40.5zM512.5 758q-91.5 0 -175 -36.5
t-144 -97.5t-96 -146t-35.5 -178t35.5 -178t96 -146t144 -97.5t174.5 -36.5q61 0 119.5 16.5t108 46t91 72t70.5 92.5t45.5 109.5t16.5 121.5q0 93 -36 178t-96.5 146t-143.5 97.5t-174.5 36.5zM677 18q-6 -6 -12 -10t-13 -7q-4 -2 -7.5 -3t-7.5 -1.5t-7.5 -1t-8.5 -0.5
h-213q-17 0 -31 6t-24.5 16.5t-16.5 24.5t-6 31v447q0 6 0.5 11t2 10t3.5 10t4.5 9t5.5 8l6 8q11 11 25 17t31 6h213q17 0 31 -6t25 -17q5 -5 9 -11.5t7 -13.5q6 -14 6 -31v-447q0 -9 -1.5 -16.5t-4.5 -14.5q-6 -14 -16 -24zM492 29q10 -10 22 -10q7 0 12.5 2.5t10 7.5t7 11
t2.5 12q0 15 -9.5 24.5t-22.5 9.5q-12 0 -22 -10q-4 -4 -6.5 -10t-2.5 -14v-4q0 -1 0.5 -3t1 -3.5t1.5 -3.5l2 -4l2 -2q1 -2 2 -3zM559 553q-3 2 -6 2h-77l-6 -2q-3 -3 -3 -9l3 -8q3 -2 6 -3h77q2 0 3.5 1t2.5 2q3 3 3 8.5t-3 8.5zM650 489h-272v-385h272v385z" />
    <glyph glyph-name="uniE61E" unicode="&#xe61e;" 
d="M512 -212q-185 0 -326 122q-135 117 -168 293q-9 48 -9 97q0 104 40 198.5t107 163t160.5 109.5t195.5 41t195 -41t160.5 -109.5t107.5 -163t40 -198.5q0 -83 -25.5 -161t-72 -141t-108.5 -110.5t-138.5 -73.5t-158.5 -26zM512 758q-170 0 -297 -114q-124 -111 -148 -275
q-5 -35 -5 -69q0 -93 35.5 -177.5t96 -146t143.5 -98t174.5 -36.5t175 36.5t143.5 98t96 146t36 177.5t-36 177.5t-96 146t-143.5 98t-174.5 36.5zM580 282l-2 -3l-66 -67q-12 -12 -29 -12h-50q-7 0 -12 -5.5t-5 -12.5v-51q0 -7 -5 -12t-12 -5h-50q-3 0 -5.5 -1t-4.5 -2.5
t-4 -3.5t-2.5 -5t-0.5 -5v-51q0 -7 -5 -12t-12 -5l-52 -1q-7 0 -12 5.5t-5 12.5v52q0 18 12 30l234 239q1 1 3 2q-17 42 -8 88.5t42 80.5q30 30 69.5 40.5t79 0t68.5 -40.5q45 -46 45 -110.5t-45 -110.5q-16 -17 -36.5 -28t-42 -15t-44 -2t-43.5 10zM728.5 519.5
q-17.5 17.5 -42.5 17.5t-42.5 -17.5t-17.5 -43t18 -43.5q11 -11 26.5 -15.5t31 0t26.5 15.5q18 18 18 43.5t-17.5 43z" />
    <glyph glyph-name="uniE61F" unicode="&#xe61f;" 
d="M512 -212q-102 0 -195.5 41t-160.5 109.5t-107 163t-40 198.5q0 83 25.5 161t72 141t108 110.5t138.5 73.5t159 26q102 0 195 -41t160.5 -109.5t107.5 -163t40 -198.5t-40 -198.5t-107.5 -163t-160.5 -109.5t-195 -41zM512 758q-170 0 -297 -114q-124 -111 -148 -275
q-5 -35 -5 -69q0 -93 35.5 -177.5t96 -146t143.5 -98t174.5 -36.5t175 36.5t143.5 98t96 146t36 177.5t-36 177.5t-96 146t-143.5 98t-174.5 36.5zM788 66h-534q-16 0 -27 11.5t-11 27.5v388q0 5 1 10t3.5 9.5t6 8t8 6t9.5 4t10 1.5h534q16 0 27 -11.5t11 -27.5v-388
q0 -16 -11 -27.5t-27 -11.5zM745 449q-6 6 -13.5 6t-13.5 -6l-66 -66l-93 -95q-8 -7 -18 -11.5t-21 -4.5q-21 0 -37 15v-1l-125 127h1l-35 36q-6 6 -14 6t-13.5 -5.5t-5.5 -13.5t6 -14l120 -124l-120 -122q-6 -6 -6 -14t5.5 -13.5t13.5 -5.5t14 5l120 123l32 -32q2 -3 5 -5
l2 -2q16 -13 35 -13q24 0 41 17v-1l37 37l121 -124q4 -3 8.5 -4.5t9.5 0t9 4.5q5 6 5 14t-5 14l-121 123l122 123q12 14 0 27z" />
    <glyph glyph-name="uniE620" unicode="&#xe620;" 
d="M184 -101q-41 0 -70.5 35t-29.5 85v626q0 33 13.5 60.5t36.5 43.5t50 16h666q27 0 50 -16t36.5 -43.5t13.5 -60.5v-67h-1v-11q0 -13 -4.5 -23.5t-12.5 -16.5l-399 -283q-1 0 -2 -1v0h-1v-1q-7 -3 -14 -3q-5 0 -10.5 2.5t-9.5 7.5h-1l-238 173q-8 5 -13 15.5t-5 22.5t5 23
q10 20 28 20q4 0 8 -1t7 -4l231 -166l365 258v29q0 10 -3 20t-8 17.5t-12 13.5t-15 9t-17 3h-622q-15 0 -27.5 -8.5t-20 -23t-7.5 -31.5v-574q0 -26 16 -44.5t39 -18.5h621q12 0 22 5t17.5 13.5t12 20t4.5 24.5v287q0 17 9.5 29t23.5 12q9 0 17 -5.5t12.5 -15t4.5 -20.5
v-313q0 -50 -29.5 -85t-70.5 -35h-666z" />
    <glyph glyph-name="uniE621" unicode="&#xe621;" 
d="M511 -89q-3 0 -7 1q-9 2 -24 7.5t-54.5 26t-73.5 46.5q-32 26 -58 55t-45 62q-23 41 -35 87.5t-12 96.5v269q-1 3 -1 7q0 12 8.5 20.5t20.5 8.5q110 0 188 26q21 7 36.5 15.5t21.5 14.5t6 10q0 12 8 20.5t20 8.5h3q7 0 14 -3.5t10.5 -10.5t3.5 -15q0 -4 6 -10t21.5 -14.5
t36.5 -15.5q78 -26 188 -26q12 0 20.5 -8.5t8.5 -20.5q0 -4 -1 -7v-269q0 -101 -47 -184q-10 -16 -21 -31.5t-24 -30.5t-27.5 -28.5t-30.5 -26.5q-16 -12 -32.5 -23t-30.5 -18.5t-28.5 -14.5t-24 -11t-19 -7.5t-12.5 -4.5t-5 -1zM260 293q0 -63 22.5 -117.5t51.5 -88
t68.5 -61t63.5 -38.5t46 -18q14 5 29.5 11t41 20.5t48.5 31t48 43t42.5 57t29.5 72.5t12 88v248q-18 0 -35.5 1.5t-35.5 3.5t-35.5 5.5t-34.5 7.5t-33 9t-30 11t-26 13.5t-22 16.5q-24 -22 -67 -37t-89 -22.5t-95 -8.5v-248zM349 266q-9 8 -9 20q0 4 1 7.5t3 7t5 6t6 4.5
t7 3t7 1q12 0 21 -8l62 -62l181 181q9 9 21 9q5 0 10.5 -2t9.5 -7q9 -8 9 -20q0 -4 -1 -7.5t-3 -7t-5 -5.5l-222 -223z" />
    <glyph glyph-name="uniE622" unicode="&#xe622;" 
d="M839.5 455q-22.5 0 -38.5 -16t-16 -39v-216q0 -12 4.5 -22t11.5 -17.5t17 -12t22 -4.5q22 0 38 16.5t16 39.5v216q0 23 -16 39t-38.5 16zM182 455q-7 0 -14 -2t-13 -5.5t-11 -8.5t-8.5 -11t-5.5 -13.5t-2 -14.5v-216q0 -12 4.5 -22t11.5 -17.5t17 -12t21 -4.5
q15 0 27.5 7.5t20 20.5t7.5 28v216q0 23 -16 39t-39 16zM270 454v-395q0 -18 12.5 -30.5t29.5 -12.5h49v-120q0 -23 16 -39.5t38.5 -16.5t38.5 16.5t16 39.5v120h84v-120q0 -23 16 -39.5t39 -16.5q15 0 27.5 7.5t19.5 20.5t7 28v120h49q6 0 11.5 1.5t10 4.5t8.5 6.5t6.5 8.5
t4 10.5t1.5 11.5v395h-484zM626 658l45 65q5 7 -1.5 11.5t-11.5 -2.5l-46 -68q-49 19 -101 19q-27 0 -52 -4.5t-49 -14.5l-46 68q-5 7 -11 2.5t-2 -11.5l45 -65q-54 -25 -88.5 -70t-38.5 -99h484q-4 54 -38.5 99t-88.5 70zM409 556q-8 0 -14 3.5t-9.5 9.5t-3.5 13.5
t3.5 13.5t9.5 9.5t14 3.5q11 0 19 -7.5t8 -18.5t-8 -19t-19 -8zM617 556q-11 0 -19 8t-8 19t8 18.5t19 7.5t18.5 -7.5t7.5 -18.5t-7.5 -19t-18.5 -8z" />
    <glyph glyph-name="uniE623" unicode="&#xe623;" 
d="M837 124q42 -59 96 -77q-24 -72 -75 -151q-79 -119 -156 -119q-28 0 -85 19q-52 20 -91 20t-86 -21q-49 -19 -81 -19q-92 0 -181 157q-89 154 -89 304q0 138 68 226q69 88 172 88q22 0 50 -5.5t57 -20.5q32 -18 52.5 -24.5t31.5 -6.5q14 0 41.5 6t54.5 22q30 17 51.5 25
t44.5 8q71 0 129 -39q30 -20 62 -60q-47 -41 -68 -72q-40 -57 -40 -125q0 -74 42 -135zM631 602q-36 -33 -66 -44q-10 -3 -26 -5.5t-36 -4.5q1 90 47 155.5t151 90.5q2 -10 4 -14v-12q0 -37 -18 -83q-18 -45 -56 -83z" />
    <glyph glyph-name="uniE624" unicode="&#xe624;" horiz-adv-x="1475" 
d="M885 111q-5 1 -10 -0.5t-9 -5.5t-5 -9q-7 -35 -22.5 -60.5t-30 -37t-32.5 -18t-24 -7.5t-12 -1q-24 0 -45 8.5t-34 22.5t-22.5 28t-14.5 30t-7 22.5t-3 11.5q-1 8 -8 12.5t-15 3.5q-5 -1 -9.5 -4.5t-6 -8.5t-0.5 -10q2 -18 9 -37t21 -40.5t31.5 -38.5t44.5 -28t58 -11h1
q7 0 17 1t33 10t42.5 23.5t39 46t29.5 73.5q1 8 -3.5 15t-12.5 9zM587 243q-5 15 -17 25.5t-26 13.5t-30 -1q-22 -8 -32.5 -29.5t-2.5 -44.5t29.5 -34t44 -3.5t32.5 29t2 44.5zM933.5 280.5q-22.5 -7.5 -32.5 -29t-3 -44.5q6 -15 17.5 -25.5t26 -13.5t30.5 2q14 4 24 16
t13 26.5t-2 30.5q-8 23 -29.5 34t-44 3.5zM234 550q11 35 32 67t35 46t16 14q-113 111 -243 111l-37 -3q-70 -114 -11 -247l20 -37q80 49 184 49h4zM70 572q-34 87 1 163h3q34 0 77 -13t90 -49q-13 -15 -24 -33.5t-20 -38.5q-68 -6 -127 -29zM1438 785q-14 3 -38 3
q-51 0 -114.5 -23.5t-127.5 -87.5q6 -5 16.5 -15.5t32.5 -43.5t33 -68h5q12 0 27.5 -1.5t42.5 -5.5t57 -15t56 -27q4 6 10 16.5t18 42t16.5 63.5t-3 77t-31.5 85zM1404 572q-59 23 -126 29q-7 14 -14.5 27.5t-15 24t-15.5 20.5q82 62 167 62h3q35 -76 1 -163zM1234 292h-8
v22q0 42 -7 84q14 2 28 3l-1 4v1v1l-1 6q-8 33 -19.5 64.5t-24 56.5t-26 47t-25.5 37.5t-21.5 27t-14.5 17.5l-6 6q-22 22 -47 41.5t-47 32.5t-44 23.5t-39.5 16.5t-31 10t-21.5 5l-7 2q-66 12 -130 12v-59q29 0 59 -3t60 -8l1 -1q6 -1 13.5 -2.5t32 -10t47.5 -20t54 -33
t56 -47.5l1 -1l1 -1l4 -4q3 -3 10.5 -11.5t15 -18.5t18 -25.5t20 -31.5t19.5 -38t18 -44q-34 -4 -74 -8t-97.5 -8t-132 -6.5t-155.5 -2.5h-74l-51 100l-48 95l-57 -91l-57 -89q-65 3 -113 9q11 32 27 63.5t43.5 70t71 73t96.5 58.5l1 1h2q2 1 8.5 4t24.5 8.5t38.5 10.5
t52 8.5t64.5 3.5v59q-38 0 -74 -4t-60.5 -10.5t-44 -12.5t-28.5 -10l-9 -4q-179 -81 -257 -265q-25 -58 -31 -101q12 -3 27 -5q-8 -42 -8 -85q0 -5 0.5 -10.5t0.5 -11.5h-2h-3q-20 0 -39.5 -6t-34.5 -17.5t-27 -26.5t-18 -33.5t-6 -38.5q0 -34 16.5 -62t45.5 -44.5t63 -16.5
q22 0 44 8q48 -127 183 -202q119 -66 262 -66q155 0 278 75t168 193q11 -4 22.5 -6.5t24.5 -2.5q51 0 88 36t37 86.5t-36.5 86.5t-88.5 36zM1294 154q-12 -37 -60 -42q-8 -1 -17 -0.5t-17.5 1.5t-16 3t-14 3.5t-11 3.5t-7.5 3l-3 1q-55 -127 -165 -195.5t-259 -64.5
q-213 6 -327 164q-37 51 -50 95q-23 -15 -81 -15q-14 0 -27.5 5t-25 18t-14.5 32q-3 18 5.5 34t21.5 24.5t28 12.5q7 2 17 4t18.5 3.5t15.5 2.5t12 1l4 1q2 51 10 97l2 10l2 12q1 5 2.5 10.5t2.5 10.5q28 -3 58 -5t60 -2l12 19l63 100l51 -100l16 -31q9 0 26 -0.5t73 -1
t110 1.5q74 1 137.5 4.5t117.5 7.5l20 2l22 2q10 1 21 2l22 2q5 -25 9 -51q3 -24 4 -46t0 -33l-1 -10q66 -4 100 -20q20 -9 30 -29.5t3 -46.5z" />
    <glyph glyph-name="uniE625" unicode="&#xe625;" 
d="M977 264q-1 2 -5.5 8.5t-15 19t-22 23.5t-27.5 19.5t-31 8.5q-24 0 -51.5 -20.5t-42.5 -41.5l-16 -20q-2 3 -6.5 8.5t-17 19.5t-24.5 25t-28.5 20t-29.5 9q-43 0 -101 -72q9 -15 9 -33q0 -8 -2 -16.5t-5.5 -15t-9 -12.5t-12 -10t-13.5 -6t-15 -2q-24 0 -40.5 18t-16.5 44
q0 24 15 42q-58 64 -97 64q-8 0 -17 -3t-17 -7.5t-17 -10.5t-17 -12.5t-15 -13t-12.5 -13t-10 -11t-6.5 -7.5l-3 -2q-7 9 -19 22t-40 35.5t-47 22.5q-9 0 -19.5 -4.5t-20 -11.5t-19.5 -15.5t-18 -17t-14 -15.5t-10 -12l-3 -4l3 60q21 189 142 297q100 89 260 105l61 86
l59 -86q70 -4 128.5 -23t98.5 -45.5t71.5 -63t50 -71.5t31 -75t17.5 -69.5t7 -59t1.5 -40t-0.5 -15.5zM977 264zM352 78q0 17 3.5 33.5t12.5 36t29 36t48 25.5q9 -23 27 -35.5t38 -13t39.5 12.5t31.5 38q83 -48 80 -159l-2 -28q-4 -15 -19 -15q-3 -1 -6 0t-5 2t-3 3l-2 2
q-1 2 -1 4v1q2 28 -1.5 52t-10 38.5t-13.5 25t-12.5 15t-6.5 3.5q-5 -5 -5 -94q2 -3 5 -8t9.5 -25.5t10 -46.5t3 -72.5t-8.5 -101.5q-5 -8 -13.5 -13t-17.5 -5.5t-17 5.5t-11 19q5 34 7 63t0 48.5t-5 35.5t-7.5 25t-8 15t-6.5 8l-3 2l-6 -6q-4 -4 -12 -20.5t-12.5 -37
t-3.5 -55.5t11 -76q-5 -13 -13 -20t-15.5 -7t-14.5 3t-12 8.5t-6 10.5q-9 37 -10.5 77t2 68t10 56t10 37.5t5.5 13.5v6q0 3 0.5 12t1 17.5t0.5 19.5t-0.5 19t-1.5 14.5t-2 7.5q-21 -5 -37.5 -28.5t-17.5 -58.5q16 -14 16 -45v-228q0 -6 -5 -8t-10 0.5t-5 7.5v228q0 2 0.5 5
t-0.5 9.5t-4 11.5q-5 -3 -10 -3q-7 0 -10.5 3t-5.5 8q-4 -1 -7 -4t-4 -6.5t-1.5 -6.5t-1.5 -6.5t-2 -5.5q-4 -5 -10 -3.5t-6 5.5q0 3 0.5 8t3 13t9.5 14.5t18 9.5z" />
    <glyph glyph-name="uniE626" unicode="&#xe626;" 
d="M971 314q-49 -186 -162 -321.5t-281 -209.5l-16 -7l-16 7q-168 74 -281 209.5t-162 321.5q-22 83 -29.5 173t-5.5 123t4 53l3 26l27 -1q58 -2 113.5 2.5t99.5 14t81 20t67 23.5t46.5 21.5t30.5 16.5q5 3 6 4l16 10l16 -10l6 -4q22 -13 53.5 -27t87.5 -33.5t134.5 -30
t162.5 -7.5l27 1l3 -26q19 -160 -31 -349zM803 354q0 8 -2 14.5t-6 12t-9.5 9.5t-12.5 6.5t-14 2.5h-202v178q0 9 -3.5 17.5t-9.5 14.5t-14.5 9.5t-17.5 3.5q-18 0 -31.5 -13t-13.5 -32v-178h-202q-18 0 -31 -13t-13 -32q0 -18 13 -31t31 -13h202v-222q0 -12 6 -22.5
t16.5 -16.5t22.5 -6q7 0 14 2.5t12.5 6.5t9.5 9.5t6.5 12.5t2.5 14v222h202q18 0 31 13t13 31z" />
  </font>
</defs>
</svg>
